<?xml version="1.0" encoding="UTF-8" standalone="no" ?>
<!DOCTYPE svg PUBLIC "-//W3C//DTD SVG 1.1//EN" "http://www.w3.org/Graphics/SVG/1.1/DTD/svg11.dtd">
<svg xmlns="http://www.w3.org/2000/svg" xmlns:xlink="http://www.w3.org/1999/xlink" version="1.1" width="317.53999999999996" height="317.53999999999996" xml:space="preserve">
<desc>Created with Fabric.js 1.6.0-rc.1</desc>
<defs></defs>
<g style="stroke: none; stroke-width: 1; stroke-dasharray: none; stroke-linecap: butt; stroke-linejoin: miter; stroke-miterlimit: 10; fill: none; fill-rule: nonzero; opacity: 1;" transform="translate(10 10) scale(0.58 0.58)" >
  <rect x="219.43" y="439.9" rx="0" ry="0" width="73.14" height="64.26" style="stroke: none; stroke-width: 1; stroke-dasharray: none; stroke-linecap: butt; stroke-linejoin: miter; stroke-miterlimit: 10; fill: #FFB64D; fill-rule: nonzero; opacity: 1;" transform=" matrix(1 0 0 1 0 0) "/>
  <rect x="7.84" y="121.21" rx="0" ry="0" width="496.33" height="266.45" style="stroke: none; stroke-width: 1; stroke-dasharray: none; stroke-linecap: butt; stroke-linejoin: miter; stroke-miterlimit: 10; fill: #FFFFFF; fill-rule: nonzero; opacity: 1;" transform=" matrix(1 0 0 1 0 0) "/>
  <rect x="381.91" y="327.31" rx="0" ry="0" width="31.35" height="60.34" style="stroke: none; stroke-width: 1; stroke-dasharray: none; stroke-linecap: butt; stroke-linejoin: miter; stroke-miterlimit: 10; fill: #FFFFFF; fill-rule: nonzero; opacity: 1;" transform=" matrix(1 0 0 1 0 0) "/>
  <rect x="99.79" y="327.31" rx="0" ry="0" width="31.35" height="60.34" style="stroke: none; stroke-width: 1; stroke-dasharray: none; stroke-linecap: butt; stroke-linejoin: miter; stroke-miterlimit: 10; fill: #FFFFFF; fill-rule: nonzero; opacity: 1;" transform=" matrix(1 0 0 1 0 0) "/>
  <polygon points="303.54,285.78 209.5,285.78 131.13,285.78 131.13,387.66 381.91,387.66 381.91,285.78 " style="stroke: none; stroke-width: 1; stroke-dasharray: none; stroke-linecap: butt; stroke-linejoin: miter; stroke-miterlimit: 10; fill: #4DD0E2; fill-rule: nonzero; opacity: 1;" transform="  matrix(1 0 0 1 0 0) "/>
  <path d="M 414.302 387.657 h 47.02 V 332.8 c 0 -25.969 -21.052 -47.02 -47.02 -47.02 l 0 0 V 387.657 z" style="stroke: none; stroke-width: 1; stroke-dasharray: none; stroke-linecap: butt; stroke-linejoin: miter; stroke-miterlimit: 10; fill: #FFB64D; fill-rule: nonzero; opacity: 1;" transform=" matrix(1 0 0 1 0 0) " stroke-linecap="round" />
  <path d="M 99.788 387.657 h -47.02 V 332.8 c 0 -25.969 21.052 -47.02 47.02 -47.02 l 0 0 V 387.657 z" style="stroke: none; stroke-width: 1; stroke-dasharray: none; stroke-linecap: butt; stroke-linejoin: miter; stroke-miterlimit: 10; fill: #FFB64D; fill-rule: nonzero; opacity: 1;" transform=" matrix(1 0 0 1 0 0) " stroke-linecap="round" />
  <rect x="7.84" y="393.93" rx="0" ry="0" width="496.33" height="45.98" style="stroke: none; stroke-width: 1; stroke-dasharray: none; stroke-linecap: butt; stroke-linejoin: miter; stroke-miterlimit: 10; fill: #4DD0E2; fill-rule: nonzero; opacity: 1;" transform=" matrix(1 0 0 1 0 0) "/>
  <rect x="7.84" y="121.21" rx="0" ry="0" width="496.33" height="31.35" style="stroke: none; stroke-width: 1; stroke-dasharray: none; stroke-linecap: butt; stroke-linejoin: miter; stroke-miterlimit: 10; fill: #4DD0E2; fill-rule: nonzero; opacity: 1;" transform=" matrix(1 0 0 1 0 0) "/>
  <path d="M 256.522 269.061 L 256.522 269.061 c -9.003 0 -17.75 -1.092 -26.122 -3.138 v 80.983 c 0 14.427 11.696 26.122 26.122 26.122 s 26.122 -11.696 26.122 -26.122 v -80.983 C 274.272 267.969 265.525 269.061 256.522 269.061 z" style="stroke: none; stroke-width: 1; stroke-dasharray: none; stroke-linecap: butt; stroke-linejoin: miter; stroke-miterlimit: 10; fill: #FFFFFF; fill-rule: nonzero; opacity: 1;" transform=" matrix(1 0 0 1 0 0) " stroke-linecap="round" />
  <path d="M 256.522 269.061 L 256.522 269.061 c -60.594 0 -109.714 -49.121 -109.714 -109.714 v -41.796 c 0 -60.594 49.121 -109.714 109.714 -109.714 l 0 0 c 60.594 0 109.714 49.121 109.714 109.714 v 41.796 C 366.237 219.941 317.116 269.061 256.522 269.061 z" style="stroke: none; stroke-width: 1; stroke-dasharray: none; stroke-linecap: butt; stroke-linejoin: miter; stroke-miterlimit: 10; fill: #4DD0E2; fill-rule: nonzero; opacity: 1;" transform=" matrix(1 0 0 1 0 0) " stroke-linecap="round" />
  <path d="M 313.354 23.677 v 62.642 c 0 31.389 -25.443 56.832 -56.832 56.832 c -15.694 0 -29.905 -6.363 -40.187 -16.645 s -16.645 -24.492 -16.645 -40.187 V 23.677 c 16.583 -10.052 36.028 -15.841 56.832 -15.841 S 296.772 13.625 313.354 23.677 z" style="stroke: none; stroke-width: 1; stroke-dasharray: none; stroke-linecap: butt; stroke-linejoin: miter; stroke-miterlimit: 10; fill: #FFB64D; fill-rule: nonzero; opacity: 1;" transform=" matrix(1 0 0 1 0 0) " stroke-linecap="round" />
  <path d="M 199.69 86.319 c 0 2.581 0.167 5.11 0.512 7.596 c -28.097 16.833 -48.023 45.861 -52.464 79.778 c -0.616 -4.692 -0.93 -9.488 -0.93 -14.346 v -41.796 c 0 -39.79 21.18 -74.637 52.882 -93.874 L 199.69 86.319 L 199.69 86.319 z" style="stroke: none; stroke-width: 1; stroke-dasharray: none; stroke-linecap: butt; stroke-linejoin: miter; stroke-miterlimit: 10; fill: #FFFFFF; fill-rule: nonzero; opacity: 1;" transform=" matrix(1 0 0 1 0 0) " stroke-linecap="round" />
  <path d="M 366.237 117.551 v 41.796 c 0 4.859 -0.313 9.655 -0.93 14.346 c -3.208 -24.555 -14.535 -46.529 -31.201 -63.195 c -6.363 -6.363 -13.5 -11.943 -21.264 -16.583 c 0.345 -2.487 0.512 -5.016 0.512 -7.596 V 23.677 c 7.565 4.587 14.524 10.073 20.752 16.29 C 353.959 59.831 366.237 87.249 366.237 117.551 z" style="stroke: none; stroke-width: 1; stroke-dasharray: none; stroke-linecap: butt; stroke-linejoin: miter; stroke-miterlimit: 10; fill: #FFFFFF; fill-rule: nonzero; opacity: 1;" transform=" matrix(1 0 0 1 0 0) " stroke-linecap="round" />
  <circle cx="207.938" cy="183.898" r="18.808" style="stroke: none; stroke-width: 1; stroke-dasharray: none; stroke-linecap: butt; stroke-linejoin: miter; stroke-miterlimit: 10; fill: #FFFFFF; fill-rule: nonzero; opacity: 1;" transform="  matrix(1 0 0 1 0 0) "/>
  <circle cx="305.108" cy="183.898" r="18.808" style="stroke: none; stroke-width: 1; stroke-dasharray: none; stroke-linecap: butt; stroke-linejoin: miter; stroke-miterlimit: 10; fill: #FFFFFF; fill-rule: nonzero; opacity: 1;" transform="  matrix(1 0 0 1 0 0) "/>
  <path d="M 138.971 371.984 v -78.367 h 70.531 v -15.673 h -86.204 v 41.535 h -15.673 v -41.535 h -7.837 c -30.248 0 -54.857 24.608 -54.857 54.857 v 39.184 h 15.673 V 332.8 c 0 -18.922 13.483 -34.755 31.347 -38.397 v 77.581 h 15.673 v -36.833 h 15.673 v 36.833 H 138.971 z" style="stroke: none; stroke-width: 1; stroke-dasharray: none; stroke-linecap: butt; stroke-linejoin: miter; stroke-miterlimit: 10; fill: rgb(0,0,0); fill-rule: nonzero; opacity: 1;" transform=" matrix(1 0 0 1 0 0) " stroke-linecap="round" />
  <path d="M 387.135 113.371 v 15.673 h 109.192 v 15.673 H 387.135 v 15.673 h 109.192 v 224.653 H 15.673 V 160.392 H 125.91 v -15.673 H 15.673 v -15.673 H 125.91 v -15.673 H 0 v 47.02 v 224.653 v 2.612 v 60.082 h 512 v -60.082 v -2.612 V 160.392 v -47.02 H 387.135 z M 496.327 432.065 H 15.673 v -31.347 h 480.653 V 432.065 z" style="stroke: none; stroke-width: 1; stroke-dasharray: none; stroke-linecap: butt; stroke-linejoin: miter; stroke-miterlimit: 10; fill: rgb(0,0,0); fill-rule: nonzero; opacity: 1;" transform=" matrix(1 0 0 1 0 0) " stroke-linecap="round" />
  <circle cx="255.99900000000002" cy="416.909" r="10.449" style="stroke: none; stroke-width: 1; stroke-dasharray: none; stroke-linecap: butt; stroke-linejoin: miter; stroke-miterlimit: 10; fill: #FFFFFF; fill-rule: nonzero; opacity: 1;" transform="  matrix(1 0 0 1 0 0) "/>
  <path d="M 207.935 157.257 c -14.692 0 -26.645 11.953 -26.645 26.645 c 0 14.692 11.953 26.645 26.645 26.645 c 14.692 0 26.645 -11.953 26.645 -26.645 C 234.58 169.21 222.627 157.257 207.935 157.257 z M 207.935 194.873 c -6.05 0 -10.971 -4.921 -10.971 -10.971 c 0 -6.05 4.921 -10.971 10.971 -10.971 c 6.05 0 10.971 4.921 10.971 10.971 C 218.906 189.952 213.985 194.873 207.935 194.873 z" style="stroke: none; stroke-width: 1; stroke-dasharray: none; stroke-linecap: butt; stroke-linejoin: miter; stroke-miterlimit: 10; fill: rgb(0,0,0); fill-rule: nonzero; opacity: 1;" transform=" matrix(1 0 0 1 0 0) " stroke-linecap="round" />
  <path d="M 305.11 157.257 c -14.691 0 -26.645 11.953 -26.645 26.645 c 0 14.692 11.954 26.645 26.645 26.645 c 14.691 0 26.645 -11.953 26.645 -26.645 C 331.755 169.21 319.801 157.257 305.11 157.257 z M 305.11 194.873 c -6.05 0 -10.971 -4.921 -10.971 -10.971 c 0 -6.05 4.921 -10.971 10.971 -10.971 c 6.05 0 10.971 4.921 10.971 10.971 C 316.082 189.952 311.16 194.873 305.11 194.873 z" style="stroke: none; stroke-width: 1; stroke-dasharray: none; stroke-linecap: butt; stroke-linejoin: miter; stroke-miterlimit: 10; fill: rgb(0,0,0); fill-rule: nonzero; opacity: 1;" transform=" matrix(1 0 0 1 0 0) " stroke-linecap="round" />
  <path d="M 222.563 271.89 v 75.016 c 0 18.725 15.234 33.959 33.959 33.959 c 18.726 0 33.959 -15.235 33.959 -33.959 V 271.89 c 48.312 -14.606 83.592 -59.529 83.592 -112.543 v -41.796 C 374.073 52.733 321.34 0 256.522 0 S 138.971 52.733 138.971 117.551 v 41.796 C 138.971 212.361 174.251 257.284 222.563 271.89 z M 256.522 365.192 c -10.082 0 -18.286 -8.204 -18.286 -18.286 v -2.753 c 5.283 3.391 11.556 5.366 18.286 5.366 c 6.73 0 13.003 -1.976 18.286 -5.366 v 2.753 C 274.808 356.988 266.605 365.192 256.522 365.192 z M 256.522 333.845 c -10.082 0 -18.286 -8.203 -18.286 -18.286 v -2.753 c 5.283 3.391 11.556 5.366 18.286 5.366 c 6.73 0 13.003 -1.976 18.286 -5.366 v 2.753 C 274.808 325.641 266.605 333.845 256.522 333.845 z M 274.808 284.212 c 0 10.082 -8.204 18.286 -18.286 18.286 s -18.286 -8.204 -18.286 -18.286 v -8.738 c 5.96 0.935 12.066 1.424 18.286 1.424 c 6.219 0 12.326 -0.49 18.286 -1.424 V 284.212 z M 256.522 261.224 c -51.309 0 -93.873 -38.129 -100.864 -87.539 c 3.799 -26.903 17.966 -50.74 39.494 -66.932 c 3.127 9.425 8.416 18.067 15.641 25.294 c 12.214 12.214 28.455 18.941 45.729 18.941 c 28.521 0 52.77 -18.566 61.343 -44.241 c 3.767 2.843 7.35 5.942 10.699 9.292 c 15.562 15.561 25.76 36.008 28.818 57.669 C 350.382 223.108 307.824 261.224 256.522 261.224 z M 358.4 117.551 v 11.959 c -5.134 -8.93 -11.418 -17.218 -18.752 -24.553 c -5.664 -5.663 -11.895 -10.722 -18.557 -15.102 c 0.064 -1.171 0.1 -2.349 0.1 -3.536 V 38.888 C 343.898 57.587 358.4 85.907 358.4 117.551 z M 305.518 28.253 v 58.066 c 0 27.016 -21.978 48.995 -48.995 48.995 c -13.087 0 -25.392 -5.096 -34.645 -14.35 c -9.254 -9.254 -14.35 -21.557 -14.35 -34.646 V 28.253 c 14.546 -8.013 31.246 -12.58 48.994 -12.58 S 290.971 20.24 305.518 28.253 z M 191.854 38.888 v 47.431 c 0 1.184 0.039 2.361 0.101 3.535 c -15.579 10.232 -28.264 23.733 -37.31 39.405 v -11.708 C 154.645 85.907 169.147 57.587 191.854 38.888 z" style="stroke: none; stroke-width: 1; stroke-dasharray: none; stroke-linecap: butt; stroke-linejoin: miter; stroke-miterlimit: 10; fill: rgb(0,0,0); fill-rule: nonzero; opacity: 1;" transform=" matrix(1 0 0 1 0 0) " stroke-linecap="round" />
  <polygon points="300.41,460.8 284.74,460.8 284.74,496.33 227.26,496.33 227.26,460.8 211.59,460.8 211.59,496.33 152.03,496.33 152.03,512 361.01,512 361.01,496.33 300.41,496.33 " style="stroke: none; stroke-width: 1; stroke-dasharray: none; stroke-linecap: butt; stroke-linejoin: miter; stroke-miterlimit: 10; fill: rgb(0,0,0); fill-rule: nonzero; opacity: 1;" transform="  matrix(1 0 0 1 0 0) "/>
  <path d="M 303.543 277.943 v 15.673 h 70.531 v 78.367 h 15.673 v -36.833 h 16.718 v 36.833 h 15.673 v -77.581 c 17.864 3.641 31.347 19.474 31.347 38.397 v 39.184 h 15.673 V 332.8 c 0 -30.249 -24.609 -54.857 -54.857 -54.857 h -7.837 v 41.535 h -16.718 v -41.535 H 303.543 z" style="stroke: none; stroke-width: 1; stroke-dasharray: none; stroke-linecap: butt; stroke-linejoin: miter; stroke-miterlimit: 10; fill: rgb(0,0,0); fill-rule: nonzero; opacity: 1;" transform=" matrix(1 0 0 1 0 0) " stroke-linecap="round" />
</g>
</svg>